<svg viewBox="0 0 325 53" fill="none" xmlns="http://www.w3.org/2000/svg">
<path d="M35.0669 52.2082L9.92722 36.6822L10.0568 51.1816L0.432138 51.2676L0.231699 28.831L0.0329345 6.58187L9.65755 6.49589L9.82617 25.3701L15.1044 28.5106C21.685 16.5138 26.1139 8.53646 28.3287 4.57902L36.7463 9.31651L23.2754 33.6253L40.1186 43.9753C39.5645 44.9178 38.7615 45.9875 37.9613 47.3697L35.0669 52.2082ZM69.0038 24.8415C67.8164 24.8521 66.6931 25.0496 65.697 25.496C64.701 25.9425 63.7691 26.5758 62.9639 27.3955C62.1587 28.2153 61.5421 29.1583 61.1135 30.1622C60.6855 31.2285 60.5075 32.2927 60.5181 33.4801C60.5288 34.6676 60.7257 35.7284 61.1727 36.7869C61.6191 37.783 62.2525 38.7148 63.0722 39.52C63.8919 40.3253 64.835 40.9419 65.8388 41.3704C66.8427 41.799 67.9693 41.9764 69.1568 41.9658C70.3442 41.9552 71.405 41.7582 72.4636 41.3112C73.4596 40.8648 74.3915 40.2315 75.1967 39.4117C76.0019 38.592 76.6185 37.649 77.0471 36.6451C77.4751 35.5787 77.6531 34.5146 77.6425 33.3271C77.6319 32.1397 77.4349 31.0789 76.9879 30.0204C76.5415 29.0243 75.9081 28.0924 75.0884 27.2872C74.2687 26.482 73.3256 25.8654 72.3218 25.4369C71.2554 25.0089 70.1913 24.8309 69.0038 24.8415ZM69.2372 50.9654C68.4247 50.9727 67.5492 50.918 66.7356 50.8003C65.922 50.6825 65.1704 50.5017 64.3562 50.3215C63.5421 50.1413 62.7893 49.8355 62.0991 49.5291C61.3463 49.2233 60.6555 48.8545 59.9641 48.4232C58.77 47.6838 57.6372 46.8189 56.6277 45.7654C55.6183 44.7118 54.7327 43.5322 53.9085 42.227C53.1468 40.9213 52.5721 39.5513 52.1842 38.1173C51.7964 36.6832 51.595 35.1224 51.581 33.56C51.5737 32.7475 51.6284 31.872 51.7462 31.0584C51.8639 30.2448 52.0447 29.4932 52.2249 28.679C52.4052 27.8649 52.7109 27.1121 53.0173 26.4218C53.3236 25.7316 53.6919 24.9783 54.1233 24.2869C54.8626 23.0927 55.7275 21.96 56.7811 20.9505C57.8346 19.9411 59.0142 19.0555 60.3194 18.2313C61.6252 17.4696 62.9951 16.8948 64.4292 16.507C65.8633 16.1192 67.3615 15.9183 68.924 15.9043C69.7364 15.8971 70.612 15.9517 71.4255 16.0695C72.2391 16.1872 72.9908 16.368 73.8049 16.5482C74.6191 16.7285 75.3718 17.0343 76.0621 17.3406C76.7524 17.647 77.5057 18.0152 78.1971 18.4466C79.3912 19.186 80.524 20.0509 81.5334 21.1044C82.5429 22.1579 83.4285 23.3376 84.2526 24.6427C85.0768 25.9479 85.6516 27.3179 86.0394 28.7519C86.4273 30.186 86.6281 31.6843 86.6421 33.2467C86.6561 34.8092 86.4825 36.3733 86.1204 37.8141C85.7582 39.2549 85.208 40.6348 84.4073 41.9546C83.6066 43.2743 82.7422 44.4695 81.7517 45.5409C80.7613 46.6123 79.6441 47.4973 78.4634 48.2579C77.7798 48.7015 77.0332 49.0832 76.3485 49.4018C75.6638 49.7205 74.9167 50.0397 74.1059 50.2344C73.2951 50.4292 72.5468 50.6233 71.7354 50.7556C70.9241 50.8879 70.0497 50.9582 69.2372 50.9654ZM120.705 41.0053C121.181 45.3137 121.458 48.2488 121.595 49.6852L118.976 50.3336L117.728 50.5322L116.478 50.5434C115.79 50.5495 115.165 50.4926 114.539 50.4357C113.914 50.3788 113.288 50.2594 112.723 50.0769C112.159 49.8945 111.595 49.712 111.03 49.467C110.466 49.2221 109.963 48.914 109.398 48.6066C108.706 48.1752 108.076 47.6183 107.509 47.0609C107.003 46.4404 106.622 45.7563 106.304 45.0716C105.985 44.3869 105.728 43.6392 105.535 42.9534C105.34 42.2051 105.146 41.4568 105.078 40.7699C105.011 40.3329 105.008 39.9579 105.004 39.583C104.939 39.2085 104.935 38.8335 104.932 38.4586C104.867 38.1466 104.863 37.7716 104.86 37.4592L104.852 36.4592L104.846 35.8967L104.731 23.0222L100.044 23.0641L100.012 19.5018L99.9805 15.9394L104.668 15.8975L104.544 2.08557L113.794 2.00294L113.917 15.8149L122.605 15.7373L122.668 22.862L113.981 22.9396L114.101 36.3766L114.129 39.4389C114.194 39.7509 114.259 40.0628 114.386 40.3117C114.514 40.623 114.703 40.8089 114.892 40.9947C115.082 41.1805 115.332 41.2408 115.77 41.2994C116.208 41.3579 116.709 41.416 117.333 41.3479L119.082 41.2073L120.705 41.0053ZM154.11 24.0812C152.923 24.0918 151.8 24.2893 150.804 24.7357C149.808 25.1821 148.876 25.8155 148.07 26.6352C147.265 27.4549 146.649 28.398 146.22 29.4019C145.792 30.4682 145.614 31.5324 145.625 32.7198C145.635 33.9073 145.832 34.968 146.279 36.0266C146.726 37.0226 147.359 37.9545 148.179 38.7597C148.999 39.5649 149.942 40.1815 150.945 40.6101C151.949 41.0386 153.076 41.2161 154.263 41.2055C155.451 41.1949 156.512 40.9979 157.57 40.5509C158.566 40.1045 159.498 39.4711 160.303 38.6514C161.109 37.8317 161.725 36.8887 162.154 35.8848C162.582 34.8184 162.76 33.7543 162.749 32.5668C162.738 31.3794 162.541 30.3186 162.094 29.26C161.648 28.264 161.015 27.3321 160.195 26.5269C159.375 25.7217 158.432 25.1051 157.428 24.6765C156.362 24.2486 155.298 24.0706 154.11 24.0812ZM154.344 50.2051C153.531 50.2124 152.656 50.1577 151.842 50.04C151.029 49.9222 150.277 49.7414 149.463 49.5612C148.649 49.381 147.896 49.0752 147.206 48.7688C146.453 48.463 145.762 48.0942 145.071 47.6629C143.877 46.9235 142.744 46.0586 141.734 45.0051C140.725 43.9515 139.839 42.7719 139.015 41.4667C138.253 40.161 137.679 38.791 137.291 37.3569C136.903 35.9229 136.702 34.3621 136.688 32.7997C136.68 31.9872 136.735 31.1117 136.853 30.2981C136.97 29.4845 137.151 28.7328 137.332 27.9187C137.512 27.1046 137.818 26.3518 138.124 25.6615C138.43 24.9713 138.799 24.218 139.23 23.5266C139.969 22.3324 140.834 21.1996 141.888 20.1902C142.941 19.1807 144.121 18.2952 145.426 17.471C146.732 16.7093 148.102 16.1345 149.536 15.7467C150.97 15.3589 152.468 15.158 154.031 15.144C154.843 15.1368 155.719 15.1914 156.532 15.3092C157.346 15.4269 158.097 15.6077 158.912 15.7879C159.726 15.9682 160.478 16.274 161.169 16.5803C161.859 16.8867 162.612 17.2549 163.304 17.6863C164.498 18.4256 165.631 19.2906 166.64 20.3441C167.649 21.3976 168.535 22.5772 169.359 23.8824C170.183 25.1876 170.758 26.5575 171.146 27.9916C171.534 29.4257 171.735 30.924 171.749 32.4864C171.763 34.0489 171.589 35.613 171.227 37.0538C170.865 38.4946 170.315 39.8745 169.514 41.1942C168.713 42.5139 167.849 43.7092 166.858 44.7806C165.868 45.852 164.751 46.737 163.57 47.4976C162.886 47.9412 162.14 48.3229 161.455 48.6415C160.77 48.9602 160.023 49.2793 159.212 49.4741C158.402 49.6689 157.653 49.863 156.842 49.9953C156.031 50.1275 155.156 50.1979 154.344 50.2051ZM214.613 31.9785C214.602 30.666 214.34 29.4183 213.892 28.2348C213.444 27.0512 212.685 25.9955 211.739 25.0664C210.793 24.1373 209.787 23.3963 208.657 22.9063C207.528 22.4164 206.338 22.177 205.026 22.1888C203.713 22.2005 202.528 22.4611 201.407 22.9711C200.287 23.4811 199.294 24.24 198.365 25.1859C197.435 26.1317 196.757 27.2003 196.331 28.3917C195.904 29.583 195.665 30.8352 195.677 32.2102C195.689 33.5226 195.951 34.8328 196.399 36.0164C196.847 37.1999 197.544 38.2562 198.49 39.1853C199.435 40.1144 200.442 40.8554 201.572 41.3454C202.638 41.7734 203.89 42.0122 205.203 42.0005C206.515 41.9887 207.7 41.7281 208.821 41.2181C209.941 40.7081 210.934 39.9492 211.864 39.0033C212.793 38.0575 213.533 36.9258 213.959 35.7345C214.386 34.5431 214.625 33.2909 214.613 31.9785ZM223.547 31.5237C223.564 33.4611 223.393 35.2752 223.032 36.841C222.609 38.4698 221.998 39.9753 221.197 41.2951C220.396 42.6148 219.531 43.7475 218.478 44.8195C217.425 45.8914 216.371 46.7759 215.126 47.412L213.135 48.4299C212.45 48.686 211.702 48.9427 211.016 49.1363C210.331 49.3299 209.582 49.5241 208.896 49.6553C208.209 49.7239 207.46 49.7931 206.772 49.7993L206.46 49.802L206.085 49.8054C205.147 49.8138 204.146 49.6977 203.206 49.3936C202.203 49.09 201.262 48.6609 200.32 48.2318C199.379 47.8027 198.562 47.2475 197.744 46.6298C196.926 46.0121 196.232 45.3307 195.537 44.5244L194.931 46.6549C194.688 47.4696 194.322 48.4729 194.02 49.6007L186.645 49.6665L186.429 25.4175L186.24 4.35585L186.213 1.29347L195.4 1.2114L195.565 19.6482C196.059 19.0187 196.616 18.3887 197.299 17.8201C197.919 17.252 198.664 16.6829 199.472 16.1756C200.28 15.7309 201.151 15.2856 202.086 14.9647C203.021 14.6439 204.081 14.3844 205.206 14.3743L205.518 14.3715C205.643 14.3704 205.768 14.3693 205.83 14.3062L206.518 14.3001C207.205 14.294 207.956 14.3498 208.644 14.4061C209.332 14.525 210.084 14.7058 210.773 14.8871C211.462 15.0685 212.214 15.3118 212.904 15.5556C213.594 15.862 214.222 16.1689 214.913 16.6002C216.107 17.2771 217.239 18.0795 218.248 19.0705C219.257 20.0615 220.205 21.1781 221.029 22.4833C221.853 23.7885 222.428 25.1584 222.879 26.6544C223.33 28.1505 223.532 29.7737 223.547 31.5237ZM264.355 31.6591C264.343 30.3467 264.02 29.0995 263.572 27.916C263.124 26.7949 262.427 25.7386 261.481 24.8095C260.535 23.8804 259.529 23.1394 258.399 22.6495C257.27 22.222 256.081 21.9827 254.768 21.9944C253.456 22.0061 252.271 22.2667 251.212 22.7137C250.154 23.2231 249.161 23.9821 248.232 24.9279C247.303 25.8737 246.625 26.9423 246.197 28.0712C245.77 29.2626 245.532 30.5147 245.543 31.8272C245.555 33.1396 245.816 34.3873 246.264 35.5709C246.712 36.7544 247.409 37.8108 248.355 38.7398C249.301 39.6689 250.308 40.41 251.437 40.8999C252.503 41.3279 253.693 41.5673 255.006 41.5555C256.318 41.5438 257.503 41.2832 258.624 40.8357C259.745 40.3257 260.738 39.5668 261.667 38.6209C262.596 37.6751 263.274 36.6065 263.702 35.4776C264.128 34.2863 264.43 33.0335 264.355 31.6591ZM264.138 14.4104L273.138 14.33L273.447 48.8911L266.197 48.9559L265.491 46.8371C265.233 46.0269 264.849 45.0302 264.527 43.9081C263.847 44.7267 263.165 45.4203 262.421 46.052C261.614 46.6842 260.807 47.2539 259.873 47.6998C258.94 48.1457 258.005 48.529 257.071 48.8499C256.136 49.1707 255.137 49.3047 254.2 49.313L253.887 49.3158L253.575 49.3186C252.262 49.3304 250.948 49.1546 249.633 48.8538C248.318 48.5531 247.064 48.1267 245.808 47.4504C244.489 46.7747 243.357 45.9723 242.286 45.0443C241.278 44.1158 240.33 42.9992 239.507 41.7565C239.063 41.0729 238.681 40.3263 238.3 39.5797C237.98 38.77 237.66 37.9603 237.465 37.1496C237.208 36.3393 237.012 35.4035 236.879 34.4672C236.746 33.5308 236.675 32.5939 236.665 31.5315C236.657 30.594 236.712 29.7185 236.829 28.8424C236.946 27.9663 237.126 27.1522 237.369 26.3375C237.612 25.5228 237.917 24.77 238.223 24.0173C238.53 23.327 238.898 22.6362 239.33 21.9448C240.132 20.7501 241.059 19.6168 242.051 18.6704C243.105 17.7234 244.223 16.9634 245.529 16.2642C246.836 15.565 248.082 15.1163 249.391 14.7921C250.638 14.4685 251.949 14.2693 253.262 14.2575L253.887 14.2519L254.199 14.2492C254.324 14.248 254.449 14.2469 254.512 14.3089C255.575 14.3619 256.639 14.5399 257.58 14.844C258.519 15.0856 259.46 15.4522 260.277 15.9449C261.093 16.3752 261.786 16.9315 262.416 17.4884C263.108 18.0447 263.676 18.6647 264.182 19.2852L264.138 14.4104ZM315.032 31.1439C314.958 29.832 314.697 28.5843 314.249 27.4007C313.801 26.2172 313.104 25.1609 312.158 24.2318C311.212 23.3027 310.206 22.5617 309.076 22.0717C307.947 21.5818 306.757 21.3424 305.445 21.3542C304.132 21.3659 302.947 21.6265 301.826 22.1365C300.643 22.6471 299.65 23.406 298.721 24.3518C297.792 25.2977 297.114 26.3663 296.687 27.5576C296.26 28.749 296.021 30.0012 296.033 31.3136C296.045 32.6261 296.307 33.9363 296.755 35.1198C297.203 36.3034 297.9 37.3597 298.846 38.2888C299.791 39.2179 300.798 39.9589 301.99 40.4483C303.181 40.8751 304.371 41.1145 305.683 41.1028C306.996 41.0911 308.181 40.8305 309.302 40.3205C310.422 39.8104 311.415 39.0515 312.344 38.1057C313.274 37.1598 313.952 36.0912 314.378 34.8999C314.805 33.7085 315.044 32.4563 315.032 31.1439ZM314.755 0.0826317C319.38 0.103813 322.443 0.0764551 324.005 0.0624969L324.437 48.4356L317.063 48.5015L316.419 46.3821C316.161 45.5719 315.777 44.5753 315.392 43.4537C314.712 44.2723 314.031 44.9659 313.224 45.5981C312.48 46.2298 311.672 46.7995 310.739 47.2454C309.805 47.6913 308.809 48.1377 307.874 48.4585C306.94 48.7794 305.941 48.9133 305.003 48.9217L304.628 48.925L304.316 48.9278C303.628 48.934 302.878 48.8782 302.127 48.8224C301.439 48.7035 300.687 48.5227 299.998 48.3414C299.309 48.16 298.557 47.9167 297.867 47.6729L295.858 46.6908C294.602 46.077 293.532 45.149 292.523 44.158C291.451 43.105 290.566 41.9879 289.742 40.6827C288.917 39.3775 288.342 37.8826 287.89 36.2616C287.438 34.703 287.235 32.9548 287.218 31.0174C287.209 30.0799 287.264 29.2044 287.381 28.2658C287.497 27.3272 287.677 26.5131 287.92 25.6984C288.163 24.8837 288.469 24.1309 288.774 23.3782C289.143 22.6873 289.512 21.9965 289.944 21.3051C290.745 20.1104 291.673 18.9771 292.664 18.0307C293.718 17.0837 294.836 16.2612 296.142 15.562C297.449 14.8628 298.694 14.2892 300.003 13.965C301.313 13.6408 302.561 13.4421 303.874 13.4304L304.561 13.4242C304.624 13.4862 304.749 13.485 304.874 13.4839L305.187 13.4811C306.249 13.4716 307.314 13.7121 308.254 14.0163C309.194 14.3204 310.136 14.7495 310.952 15.1797C311.769 15.6724 312.461 16.1663 313.153 16.7226C313.846 17.2789 314.414 17.8989 314.92 18.5194L314.755 0.0826317Z" fill="black"/>
</svg>
