<svg viewBox="0 0 602 116" fill="none" xmlns="http://www.w3.org/2000/svg">
<path d="M-1.90735e-05 115.2V0H23.04V69.12H34.56C40.96 69.12 46.08 64 46.08 57.6V46.208H69.12V57.6C69.12 66.432 65.792 74.496 60.288 80.64C65.792 86.784 69.12 94.848 69.12 103.68V115.072H46.08V103.68C46.08 97.28 40.96 92.16 34.56 92.16H23.04V115.2H-1.90735e-05ZM121.565 115.2C102.493 115.2 87.005 99.712 87.005 80.64C87.005 61.568 102.493 46.08 121.565 46.08C140.637 46.08 156.125 61.568 156.125 80.64C156.125 99.712 140.637 115.2 121.565 115.2ZM121.565 92.16C127.965 92.16 133.085 87.04 133.085 80.64C133.085 74.24 127.965 69.12 121.565 69.12C115.293 69.12 110.045 74.24 110.045 80.64C110.045 87.04 115.293 92.16 121.565 92.16ZM208.56 115.2C189.488 115.2 174 99.712 174 80.64V23.04H197.04V46.08H243.12V69.12H197.04V80.64C197.04 87.04 202.288 92.16 208.56 92.16C214.96 92.16 220.08 87.04 220.08 80.64H243.12C243.12 99.712 227.632 115.2 208.56 115.2ZM295.565 115.2C276.493 115.2 261.005 99.712 261.005 80.64C261.005 61.568 276.493 46.08 295.565 46.08C314.637 46.08 330.125 61.568 330.125 80.64C330.125 99.712 314.637 115.2 295.565 115.2ZM295.565 92.16C301.965 92.16 307.085 87.04 307.085 80.64C307.085 74.24 301.965 69.12 295.565 69.12C289.293 69.12 284.045 74.24 284.045 80.64C284.045 87.04 289.293 92.16 295.565 92.16ZM382.56 115.2C363.488 115.2 348 99.712 348 80.64V0H371.04V48C374.624 46.72 378.464 46.08 382.56 46.08C401.632 46.08 417.12 61.568 417.12 80.64C417.12 99.712 401.632 115.2 382.56 115.2ZM382.56 92.16C388.832 92.16 394.08 87.04 394.08 80.64C394.08 74.24 388.832 69.12 382.56 69.12C376.16 69.12 371.04 74.24 371.04 80.64C371.04 87.04 376.16 92.16 382.56 92.16ZM474.685 115.2C455.613 115.2 440.125 99.712 440.125 80.64C440.125 61.568 455.613 46.08 474.685 46.08C493.757 46.08 509.245 61.568 509.245 80.64V115.2H486.205V113.28C482.621 114.56 478.781 115.2 474.685 115.2ZM474.685 92.16C481.085 92.16 486.205 87.04 486.205 80.64C486.205 74.24 481.085 69.12 474.685 69.12C468.413 69.12 463.165 74.24 463.165 80.64C463.165 87.04 468.413 92.16 474.685 92.16ZM566.81 115.2C547.738 115.2 532.25 99.712 532.25 80.64C532.25 61.568 547.738 46.08 566.81 46.08C570.906 46.08 574.746 46.72 578.33 48V0H601.37V80.64C601.37 99.712 585.882 115.2 566.81 115.2ZM566.81 92.16C573.21 92.16 578.33 87.04 578.33 80.64C578.33 74.24 573.21 69.12 566.81 69.12C560.538 69.12 555.29 74.24 555.29 80.64C555.29 87.04 560.538 92.16 566.81 92.16Z" fill="black"/>
</svg>
