<svg viewBox="0 0 321 320" fill="none" xmlns="http://www.w3.org/2000/svg">
<path fill-rule="evenodd" clip-rule="evenodd" d="M169.26 19.802C156.822 25.99 149.838 33.7668 143.479 48.5112C136.508 64.6722 135.029 83.9135 140.316 105.573C148.775 140.222 171.266 168.955 199.434 188.249C225.8 206.309 255.135 208.67 274.819 194.316C288.344 184.453 296.565 166.112 296.883 145.095C297.017 136.193 293.12 114.75 289.639 105.248C272.675 58.9256 234.796 21.0957 200.033 15.7593C191.739 14.4855 175.714 16.591 169.26 19.802ZM195.26 31.4988C204.688 32.2045 212.419 35.4554 224.583 43.8288C252.399 62.9771 272.574 94.4727 278.858 128.556C282.488 148.245 280.899 160.681 273.199 172.837C263.942 187.452 243.493 191.544 223.249 182.834C198.145 172.034 172.265 142.331 161.44 111.896C158.294 103.051 154.323 81.1986 154.453 73.449C154.585 65.638 157.848 53.7411 161.579 47.4621C164.291 42.9006 170.593 37.1843 175.983 34.3978C179.91 32.3676 188.868 31.0201 195.26 31.4988ZM59.8534 155.301C52.179 160.458 44.4736 165.869 42.7301 167.324C38.7508 170.646 31.9142 180.901 29.9704 186.466C26.7753 195.608 27.372 207.047 31.4962 215.775C38.1871 229.932 49.8379 238.313 64.8938 239.801C76.9344 240.989 78.2065 240.489 108.439 222.692C112.64 220.219 116.485 217.827 116.985 217.377C117.509 216.905 115.982 215.345 113.385 213.696C104.091 207.797 92.1666 194.606 86.4631 183.914C81.1737 174 79.3208 169.032 76.4971 157.196L73.8074 145.924L59.8534 155.301ZM116.087 237.18C106.064 242.774 97.9279 247.699 98.0053 248.124C98.0827 248.549 109.403 260.541 123.16 274.772C146.277 298.684 148.433 300.65 151.585 300.666C154.251 300.68 157.679 299.05 167.277 293.203C174.032 289.087 180.028 285.07 180.6 284.274C181.172 283.478 181.588 281.268 181.522 279.361C181.415 276.21 179.382 273.805 159.13 252.861C146.879 240.192 136.283 229.192 135.583 228.418C134.455 227.17 132.242 228.165 116.087 237.18Z" fill="#FF383C"/>
<path d="M195.26 31.4988C204.688 32.2045 212.419 35.4554 224.583 43.8288C252.399 62.9771 272.574 94.4727 278.858 128.556C282.488 148.245 280.899 160.681 273.199 172.837C263.942 187.452 243.493 191.544 223.249 182.834C198.145 172.034 172.265 142.331 161.44 111.896C158.294 103.051 154.323 81.1986 154.453 73.449C154.585 65.638 157.848 53.7411 161.579 47.4621C164.291 42.9006 170.593 37.1843 175.983 34.3978C179.91 32.3676 188.868 31.0201 195.26 31.4988Z" fill="#FF383C"/>
<path d="M84.3812 140.698C85.8407 157.48 93.7991 191.899 124.145 209.192C124.145 209.192 169.264 205.202 245.464 203.652C321.663 202.103 137.507 119.28 147.81 39.1125L84.3812 140.698Z" fill="#00C0E8"/>
</svg>
