<svg viewBox="0 0 601 186" fill="currentColor" xmlns="http://www.w3.org/2000/svg">
<path fill-rule="evenodd" clip-rule="evenodd" d="M449.5 0.945097C448.125 1.4221 443.017 3.00212 438.15 4.45712C429.617 7.00812 429.316 7.19811 429.755 9.76211C430.193 12.3141 439.382 44.1371 439.803 44.5581C439.916 44.6701 445.519 43.1461 452.254 41.1701C460.447 38.7661 464.5 37.1091 464.5 36.1631C464.5 33.0021 454.032 -0.0728793 453.055 0.000120657C452.475 0.0431207 450.875 0.469097 449.5 0.945097ZM577.811 10.8191C571.658 12.8001 566.298 14.7561 565.9 15.1661C564.966 16.1281 575.578 51.9211 576.798 51.9211C579.006 51.9211 600.5 44.7311 600.5 43.9921C600.5 43.5421 598.964 38.0551 597.087 31.7981C595.209 25.5411 592.897 17.5961 591.947 14.1441C590.998 10.6911 589.946 7.72111 589.611 7.54211C589.275 7.36311 583.965 8.83812 577.811 10.8191ZM406.315 13.2541C400.438 14.9961 395.367 16.6921 395.046 17.0231C394.576 17.5081 404.125 52.6501 405.018 53.7221C405.271 54.0251 429.578 47.1961 430.039 46.6921C430.287 46.4221 426.705 33.8001 421.947 18.1711C420.541 13.5511 418.9 9.95812 418.218 10.0041C417.548 10.0501 412.192 11.5131 406.315 13.2541ZM179.499 99.1711L179.498 185.421L199.499 185.131L219.5 184.841V147.881C219.5 127.553 219.749 110.921 220.054 110.921C220.95 110.921 237.317 115.583 262.452 122.998C275.351 126.803 286.199 129.58 286.559 129.169C287.771 127.785 296.447 91.4671 295.72 90.8231C295.324 90.4721 288.475 88.3271 280.5 86.0561C272.525 83.7841 255.65 78.8851 243 75.1691L220 68.4111L219.734 40.6661L219.468 12.9211H199.484H179.5L179.499 99.1711ZM477.5 98.8621C477.5 146.13 477.837 184.983 478.25 185.202C478.663 185.422 487.663 185.394 498.25 185.141L517.5 184.68V147.233C517.5 112.031 517.605 109.818 519.25 110.324C520.212 110.62 530.9 113.779 543 117.345C555.1 120.911 569.5 125.173 575 126.816C580.5 128.459 585.294 129.493 585.653 129.112C586.949 127.741 595.61 91.6331 594.815 90.9161C594.367 90.5111 580.5 86.2611 564 81.4711C547.5 76.6811 530.3 71.6501 525.777 70.2901L517.555 67.8171L517.612 52.1191C517.643 43.4851 517.631 31.1331 517.584 24.6711L517.5 12.9211H497.5H477.5V98.8621ZM544 20.5101C538.5 22.3101 533.212 23.8141 532.25 23.8521C531.288 23.8901 530.494 24.4841 530.488 25.1711C530.47 26.9911 540.632 60.2721 541.501 61.2391C542.153 61.9641 562.215 56.7361 565.156 55.0741C565.972 54.6131 564.717 49.1351 560.892 36.4571C557.912 26.5771 555.141 18.2111 554.736 17.8661C554.331 17.5211 549.5 18.7111 544 20.5101ZM0.985981 32.1641C0.680981 33.4051 0.558985 42.5211 0.714985 52.4211L0.999989 70.4211L52.25 70.6801L103.5 70.9391V102.921V134.903L50.25 135.162H1.54097V156L1.54099 175.677H70.257L143.513 175.934L143.257 103.177L143 30.4211L72.271 30.1641L1.54097 29.9081L0.985981 32.1641ZM328.597 35.2361C328.038 36.9881 323.551 51.9211 318.625 68.4211C305.416 112.668 300.997 127.298 294.351 148.801C291.056 159.46 288.729 168.523 289.18 168.94C290.345 170.018 326.478 180.338 326.961 179.73C327.096 179.56 329.112 172.896 331.442 164.921C333.771 156.946 339.035 139.396 343.139 125.921C347.242 112.446 352.434 95.3461 354.676 87.9211C356.918 80.4961 360.721 67.9981 363.126 60.1471C365.532 52.2961 367.5 45.2771 367.5 44.5501C367.5 43.7101 362.3 41.7051 353.25 39.0571C345.413 36.7631 336.888 34.2481 334.306 33.4691L329.612 32.0501L328.597 35.2361ZM389.386 49.0381L383.772 50.9971L388.515 65.7091C408.816 128.674 426.157 180.236 427.162 180.622C428.403 181.098 461.36 171.195 462.818 169.908C463.267 169.511 455.924 145.389 446.499 116.303C437.074 87.2181 428.683 61.2841 427.851 58.6711C427.02 56.0581 426.263 53.9211 426.17 53.9211C426.076 53.9211 420.274 55.6491 413.275 57.7611L400.549 61.6011L398.968 56.0111C398.098 52.9371 397.157 49.6331 396.876 48.6711C396.266 46.5821 396.449 46.5731 389.386 49.0381Z"/>
</svg>
