<svg viewBox="0 0 118 124" fill="none" xmlns="http://www.w3.org/2000/svg">
<path d="M55.1629 93.0076C59.3596 94.3892 61.7574 99.0572 59.0814 102.573C54.939 108.015 48.8797 110.745 43.4769 108.967C38.0742 107.188 34.8215 101.393 34.7222 94.5542C34.658 90.1364 39.36 87.8055 43.5567 89.187L55.1629 93.0076Z" fill="#5A86FF"/>
<path d="M76.4476 16.3822C74.7629 14.8881 72.5264 14.1733 70.2874 14.4132L54.7254 16.0804C51.1808 16.4602 48.3152 19.1394 47.6982 22.6504L38.6002 74.4226C37.9123 78.3372 40.2026 82.1631 43.9779 83.4059L57.63 87.9C61.4053 89.1428 65.5205 87.4255 67.2926 83.8678L90.6807 36.9134C92.293 33.6765 91.5334 29.7606 88.828 27.3613L76.4476 16.3822Z" fill="#5A86FF"/>
<path d="M70.7357 85.2796L92.4375 49.736C93.0814 48.6815 94.035 47.8515 95.1683 47.3593L96.1476 46.9339C100.012 45.2554 104.358 47.9782 104.533 52.1878L104.975 62.8283C105.058 64.8244 104.142 66.7309 102.532 67.9135L74.3578 88.6051C73.7049 89.0846 72.8604 89.2189 72.0909 88.9656C70.5569 88.4607 69.8941 86.6579 70.7357 85.2796Z" fill="#F1BAFF"/>
<path d="M34.9919 73.5147L38.6489 32.0309C38.7574 30.8002 38.4833 29.566 37.864 28.4969L37.3289 27.573C35.2172 23.9272 30.104 23.5363 27.4624 26.8187L20.7855 35.1156C19.533 36.6721 19.1373 38.7499 19.7301 40.6577L30.1026 74.0384C30.343 74.812 30.9426 75.4217 31.7121 75.675C33.246 76.1799 34.8501 75.1234 34.9919 73.5147Z" fill="#F1BAFF"/>
</svg>
