<svg viewBox="0 0 1067 253" fill="none" xmlns="http://www.w3.org/2000/svg">
<path d="M118.816 163.65H28C12.536 163.65 0 176.186 0 191.65V208.157V224.664C0 240.128 12.536 252.664 28 252.664H110C146.816 252.664 220 265.053 220 139.332C220 39.1227 149.19 26.0003 110 26H28C12.536 26 0 38.536 0 54V63.6244V73.2489C0 88.7128 12.536 101.249 28 101.249L118.816 101.249C134.28 101.249 146.816 113.785 146.816 129.249V135.65C146.816 151.114 134.28 163.65 118.816 163.65Z" fill="#3C0606"/>
<path d="M741 26.5C741 41.1355 729.136 53 714.5 53C699.864 53 688 41.1355 688 26.5C688 11.8645 699.864 -2.11725e-07 714.5 -2.11725e-07C729.136 -2.11725e-07 741 11.8645 741 26.5Z" fill="#3C0606"/>
<path d="M803.938 26.5C803.938 41.1355 792.073 53 777.438 53C762.802 53 750.938 41.1355 750.938 26.5C750.938 11.8645 762.802 1.23665e-07 777.438 1.23665e-07C792.073 1.23665e-07 803.938 11.8645 803.938 26.5Z" fill="#3C0606"/>
<path d="M1010 26C1010 39.2548 999.255 50 986 50C972.745 50 962 39.2548 962 26C962 12.7452 972.745 2 986 2C999.255 2 1010 12.7452 1010 26Z" fill="#3C0606"/>
<path d="M1067 26C1067 39.2548 1056.25 50 1043 50C1029.75 50 1019 39.2548 1019 26C1019 12.7452 1029.75 2 1043 2C1056.25 2 1067 12.7452 1067 26Z" fill="#3C0606"/>
<path d="M538.708 214.718L562.096 23.7184C563.754 10.1769 575.253 0 588.896 0H612.605C628.6 0 641.089 13.828 639.465 29.7409L619.975 220.741C618.569 234.52 606.965 245 593.115 245H565.508C549.295 245 536.737 230.811 538.708 214.718Z" fill="#3C0606"/>
<path d="M738.663 245.162L709.663 245.336C694.688 245.427 682.5 233.312 682.5 218.337V108C682.5 93.0883 694.588 81 709.5 81H738.5C753.412 81 765.5 93.0883 765.5 108V218.162C765.5 233.01 753.511 245.072 738.663 245.162Z" fill="#3C0606"/>
<path d="M365.5 249H338C323.088 249 311 236.912 311 222V127V30C311 15.0883 323.088 3 338 3H365.5C380.412 3 392.5 15.0883 392.5 30V82.5H449.5C464.412 82.5 476.5 94.5883 476.5 109.5V124.5V136.5C476.5 151.412 464.412 163.5 449.5 163.5H392.5V222C392.5 236.912 380.412 249 365.5 249Z" fill="#3C0606"/>
<path d="M911.5 246H884C869.088 246 857 233.912 857 219V124V27C857 12.0883 869.088 0 884 0H911.5C926.412 0 938.5 12.0883 938.5 27V79.5H995.5C1010.41 79.5 1022.5 91.5883 1022.5 106.5V121.5V133.5C1022.5 148.412 1010.41 160.5 995.5 160.5H938.5V219C938.5 233.912 926.412 246 911.5 246Z" fill="#3C0606"/>
</svg>
