<svg viewBox="0 0 298 53" fill="none" xmlns="http://www.w3.org/2000/svg">
<path d="M35.0669 51.968L9.92722 36.442L10.0568 50.9414L0.432136 51.0274L0.231697 28.5908L0.0329327 6.34169L9.65755 6.25571L9.82616 25.13L15.1044 28.2704C21.685 16.2737 26.1139 8.29628 28.3287 4.33884L36.7463 9.07633L23.2754 33.3851L40.1186 43.7351C39.5645 44.6776 38.7615 45.7473 37.9613 47.1295L35.0669 51.968ZM64.524 24.6413C63.3365 24.6519 62.2132 24.8495 61.2172 25.2959C60.2211 25.7423 59.2893 26.3756 58.4841 27.1954C57.6788 28.0151 57.0622 28.9581 56.6337 29.962C56.2057 31.0284 56.0277 32.0925 56.0383 33.28C56.0489 34.4674 56.2459 35.5282 56.6929 36.5867C57.1393 37.5828 57.7726 38.5147 58.5924 39.3199C59.4121 40.1251 60.3551 40.7417 61.359 41.1702C62.3629 41.5988 63.4895 41.7762 64.677 41.7656C65.8644 41.755 66.9252 41.558 67.9837 41.1111C68.9798 40.6646 69.9117 40.0313 70.7169 39.2116C71.5221 38.3918 72.1387 37.4488 72.5672 36.4449C72.9952 35.3786 73.1732 34.3144 73.1626 33.127C73.152 31.9395 72.955 30.8787 72.5081 29.8202C72.0616 28.8241 71.4283 27.8923 70.6086 27.0871C69.7888 26.2818 68.8458 25.6652 67.8419 25.2367C66.7756 24.8087 65.7114 24.6307 64.524 24.6413ZM64.7574 50.7653C63.9449 50.7725 63.0694 50.7178 62.2558 50.6001C61.4422 50.4824 60.6906 50.3016 59.8764 50.1213C59.0623 49.9411 58.3095 49.6353 57.6192 49.329C56.8665 49.0232 56.1757 48.6543 55.4843 48.223C54.2901 47.4836 53.1574 46.6187 52.1479 45.5652C51.1385 44.5117 50.2529 43.332 49.4287 42.0269C48.667 40.7211 48.0922 39.3512 47.7044 37.9171C47.3166 36.483 47.1151 34.9222 47.1012 33.3598C47.0939 32.5473 47.1486 31.6718 47.2663 30.8582C47.3841 30.0446 47.5649 29.293 47.7451 28.4789C47.9253 27.6647 48.2311 26.9119 48.5375 26.2217C48.8438 25.5314 49.2121 24.7781 49.6434 24.0867C50.3828 22.8926 51.2477 21.7598 52.3012 20.7503C53.3548 19.7409 54.5344 18.8553 55.8396 18.0311C57.1453 17.2694 58.5153 16.6947 59.9493 16.3068C61.3834 15.919 62.8817 15.7181 64.4441 15.7042C65.2566 15.6969 66.1321 15.7516 66.9457 15.8693C67.7593 15.9871 68.5109 16.1679 69.3251 16.3481C70.1392 16.5283 70.892 16.8341 71.5823 17.1405C72.2725 17.4468 73.0258 17.8151 73.7172 18.2464C74.9114 18.9858 76.0441 19.8507 77.0536 20.9042C78.063 21.9578 78.9486 23.1374 79.7728 24.4426C80.597 25.7478 81.1718 27.1177 81.5596 28.5518C81.9474 29.9859 82.1483 31.4841 82.1623 33.0466C82.1762 34.609 82.0027 36.1731 81.6405 37.6139C81.2784 39.0547 80.7282 40.4347 79.9275 41.7544C79.1267 43.0741 78.2624 44.2694 77.2719 45.3408C76.2814 46.4121 75.1643 47.2972 73.9835 48.0577C73.3 48.5014 72.5534 48.8831 71.8687 49.2017C71.184 49.5203 70.4368 49.8395 69.626 50.0342C68.8152 50.229 68.0669 50.4232 67.2556 50.5554C66.4442 50.6877 65.5698 50.758 64.7574 50.7653ZM111.746 40.8451C112.222 45.1535 112.498 48.0887 112.636 49.525L110.016 50.1734L108.768 50.3721L107.518 50.3833C106.831 50.3894 106.205 50.3325 105.58 50.2756C104.954 50.2187 104.328 50.0992 103.764 49.9168C103.2 49.7343 102.636 49.5518 102.071 49.3069C101.506 49.0619 101.003 48.7539 100.438 48.4464C99.7467 48.0151 99.1167 47.4582 98.5492 46.9007C98.0436 46.2802 97.6625 45.5961 97.3439 44.9114C97.0252 44.2268 96.7685 43.479 96.5749 42.7932C96.3807 42.0449 96.1865 41.2966 96.1179 40.6097C96.0515 40.1728 96.0481 39.7978 96.0448 39.4228C95.9789 39.0484 95.9756 38.6734 95.9722 38.2984C95.9069 37.9865 95.9036 37.6115 95.9008 37.299L95.8919 36.2991L95.8868 35.7366L95.7718 22.8621L91.0845 22.904L91.0527 19.3416L91.0209 15.7793L95.7082 15.7374L95.5848 1.92543L104.834 1.8428L104.958 15.6547L113.645 15.5771L113.709 22.7019L105.021 22.7795L105.142 36.2164L105.169 39.2788C105.234 39.5907 105.299 39.9027 105.427 40.1515C105.554 40.4629 105.744 40.6487 105.933 40.8345C106.122 41.0204 106.373 41.0806 106.811 41.1392C107.249 41.1978 107.749 41.2558 108.374 41.1878L110.122 41.0471L111.746 40.8451ZM140.671 23.961C139.483 23.9717 138.36 24.1692 137.364 24.6156C136.368 25.062 135.436 25.6954 134.631 26.5151C133.826 27.3348 133.209 28.2779 132.781 29.2817C132.353 30.3481 132.175 31.4122 132.185 32.5997C132.196 33.7871 132.393 34.8479 132.84 35.9065C133.286 36.9025 133.92 37.8344 134.739 38.6396C135.559 39.4448 136.502 40.0614 137.506 40.49C138.51 40.9185 139.636 41.096 140.824 41.0854C142.011 41.0748 143.072 40.8778 144.131 40.4308C145.127 39.9844 146.059 39.351 146.864 38.5313C147.669 37.7116 148.286 36.7685 148.714 35.7647C149.142 34.6983 149.32 33.6342 149.31 32.4467C149.299 31.2593 149.102 30.1985 148.655 29.1399C148.209 28.1439 147.575 27.212 146.756 26.4068C145.936 25.6016 144.993 24.985 143.989 24.5564C142.923 24.1284 141.858 23.9504 140.671 23.961ZM140.904 50.085C140.092 50.0923 139.216 50.0376 138.403 49.9198C137.589 49.8021 136.838 49.6213 136.023 49.4411C135.209 49.2608 134.456 48.9551 133.766 48.6487C133.013 48.3429 132.323 47.9741 131.631 47.5427C130.437 46.8034 129.304 45.9385 128.295 44.8849C127.285 43.8314 126.4 42.6518 125.576 41.3466C124.814 40.0408 124.239 38.6709 123.851 37.2368C123.464 35.8027 123.262 34.242 123.248 32.6795C123.241 31.8671 123.296 30.9915 123.413 30.178C123.531 29.3644 123.712 28.6127 123.892 27.7986C124.072 26.9844 124.378 26.2317 124.684 25.5414C124.991 24.8512 125.359 24.0978 125.79 23.4065C126.53 22.2123 127.395 21.0795 128.448 20.0701C129.502 19.0606 130.681 18.1751 131.987 17.3509C133.292 16.5892 134.662 16.0144 136.096 15.6266C137.53 15.2388 139.029 15.0379 140.591 15.0239C141.404 15.0166 142.279 15.0713 143.093 15.1891C143.906 15.3068 144.658 15.4876 145.472 15.6678C146.286 15.8481 147.039 16.1538 147.729 16.4602C148.419 16.7665 149.173 17.1348 149.864 17.5662C151.058 18.3055 152.191 19.1704 153.201 20.224C154.21 21.2775 155.096 22.4571 155.92 23.7623C156.744 25.0675 157.319 26.4374 157.707 27.8715C158.094 29.3056 158.295 30.8039 158.309 32.3663C158.323 33.9288 158.15 35.4929 157.788 36.9337C157.425 38.3745 156.875 39.7544 156.074 41.0741C155.274 42.3938 154.409 43.5891 153.419 44.6605C152.428 45.7319 151.311 46.6169 150.131 47.3775C149.447 47.8211 148.7 48.2028 148.016 48.5214C147.331 48.84 146.584 49.1592 145.773 49.354C144.962 49.5487 144.214 49.7429 143.403 49.8752C142.591 50.0074 141.717 50.0777 140.904 50.085ZM196.694 31.8984C196.682 30.5859 196.421 29.3382 195.973 28.1547C195.525 26.9711 194.766 25.9154 193.82 24.9863C192.874 24.0572 191.867 23.3162 190.738 22.8262C189.608 22.3363 188.419 22.0969 187.106 22.1087C185.794 22.1204 184.609 22.381 183.488 22.891C182.368 23.401 181.374 24.1599 180.445 25.1058C179.516 26.0516 178.838 27.1202 178.411 28.3116C177.984 29.5029 177.746 30.7551 177.758 32.1301C177.77 33.4425 178.031 34.7527 178.479 35.9363C178.928 37.1198 179.625 38.1761 180.57 39.1052C181.516 40.0343 182.523 40.7753 183.652 41.2653C184.719 41.6933 185.971 41.9321 187.283 41.9204C188.596 41.9086 189.781 41.648 190.901 41.138C192.022 40.628 193.015 39.8691 193.944 38.9232C194.873 37.9774 195.613 36.8457 196.04 35.6544C196.467 34.463 196.706 33.2108 196.694 31.8984ZM205.628 31.4436C205.645 33.381 205.474 35.1951 205.113 36.7609C204.69 38.3897 204.078 39.8952 203.278 41.215C202.477 42.5347 201.612 43.6674 200.559 44.7394C199.506 45.8113 198.451 46.6958 197.207 47.3319L195.216 48.3498C194.531 48.6059 193.783 48.8626 193.097 49.0562C192.411 49.2498 191.663 49.444 190.977 49.5752C190.29 49.6438 189.54 49.713 188.853 49.7192L188.541 49.7219L188.166 49.7253C187.228 49.7337 186.227 49.6176 185.287 49.3135C184.284 49.0099 183.343 48.5808 182.401 48.1517C181.46 47.7226 180.642 47.1674 179.824 46.5497C179.006 45.932 178.313 45.2506 177.618 44.4443L177.012 46.5748C176.769 47.3895 176.403 48.3928 176.101 49.5206L168.726 49.5864L168.509 25.3374L168.321 4.27575L168.294 1.21338L177.481 1.1313L177.646 19.5681C178.14 18.9386 178.697 18.3086 179.379 17.74C179.999 17.1719 180.744 16.6028 181.552 16.0955C182.361 15.6508 183.232 15.2055 184.167 14.8846C185.101 14.5638 186.162 14.3043 187.286 14.2942L187.599 14.2914C187.724 14.2903 187.849 14.2892 187.911 14.2262L188.598 14.22C189.286 14.2139 190.036 14.2697 190.724 14.326C191.413 14.4449 192.165 14.6257 192.854 14.807C193.543 14.9884 194.295 15.2317 194.985 15.4755C195.675 15.7819 196.303 16.0888 196.994 16.5201C198.188 17.197 199.32 17.9994 200.329 18.9904C201.338 19.9814 202.285 21.098 203.11 22.4032C203.934 23.7084 204.508 25.0783 204.959 26.5743C205.41 28.0704 205.612 29.6936 205.628 31.4436ZM241.956 31.6191C241.944 30.3066 241.621 29.0594 241.172 27.8759C240.725 26.7549 240.028 25.6985 239.082 24.7694C238.136 23.8404 237.13 23.0993 236 22.6094C234.871 22.182 233.682 21.9426 232.369 21.9543C231.057 21.966 229.872 22.2266 228.813 22.6736C227.755 23.1831 226.762 23.942 225.833 24.8878C224.904 25.8337 224.226 26.9023 223.798 28.0311C223.371 29.2225 223.132 30.4747 223.144 31.7871C223.156 33.0996 223.417 34.3473 223.865 35.5308C224.313 36.7144 225.01 37.7707 225.956 38.6998C226.902 39.6289 227.909 40.3699 229.038 40.8598C230.104 41.2878 231.294 41.5272 232.606 41.5155C233.919 41.5037 235.104 41.2431 236.225 40.7956C237.346 40.2856 238.339 39.5267 239.268 38.5808C240.197 37.635 240.875 36.5664 241.302 35.4375C241.729 34.2462 242.031 32.9934 241.956 31.6191ZM241.739 14.3703L250.739 14.2899L251.048 48.851L243.798 48.9158L243.092 46.797C242.834 45.9868 242.45 44.9902 242.128 43.868C241.448 44.6866 240.766 45.3802 240.022 46.0119C239.215 46.6441 238.408 47.2139 237.474 47.6597C236.54 48.1056 235.606 48.4889 234.672 48.8098C233.737 49.1307 232.738 49.2646 231.801 49.273L231.488 49.2758L231.176 49.2786C229.863 49.2903 228.549 49.1145 227.234 48.8138C225.919 48.513 224.665 48.0867 223.409 47.4104C222.09 46.7346 220.958 45.9322 219.887 45.0042C218.879 44.0757 217.931 42.9591 217.108 41.7164C216.664 41.0329 216.282 40.2862 215.901 39.5396C215.581 38.7299 215.261 37.9203 215.066 37.1095C214.809 36.2992 214.613 35.3635 214.48 34.4271C214.347 33.4908 214.276 32.5539 214.266 31.4914C214.258 30.5539 214.312 29.6784 214.43 28.8023C214.547 27.9263 214.727 27.1121 214.97 26.2974C215.213 25.4827 215.518 24.7299 215.824 23.9772C216.13 23.2869 216.499 22.5961 216.931 21.9047C217.732 20.71 218.66 19.5767 219.651 18.6303C220.706 17.6833 221.824 16.9233 223.13 16.2241C224.436 15.5249 225.682 15.0763 226.992 14.7521C228.239 14.4284 229.55 14.2292 230.863 14.2175L231.487 14.2119L231.8 14.2091C231.925 14.208 232.05 14.2068 232.113 14.2688C233.176 14.3218 234.24 14.4998 235.18 14.8039C236.12 15.0455 237.061 15.4121 237.878 15.9049C238.694 16.3351 239.387 16.8914 240.017 17.4483C240.709 18.0046 241.277 18.6246 241.783 19.2451L241.739 14.3703ZM288.154 31.1438C288.079 29.8319 287.818 28.5842 287.37 27.4007C286.922 26.2171 286.225 25.1608 285.279 24.2317C284.333 23.3027 283.327 22.5616 282.197 22.0717C281.068 21.5818 279.878 21.3424 278.566 21.3541C277.253 21.3658 276.068 21.6264 274.948 22.1365C273.765 22.647 272.771 23.4059 271.842 24.3518C270.913 25.2976 270.235 26.3662 269.808 27.5576C269.381 28.7489 269.143 30.0011 269.154 31.3136C269.166 32.626 269.428 33.9362 269.876 35.1198C270.324 36.3033 271.021 37.3596 271.967 38.2887C272.913 39.2178 273.919 39.9588 275.111 40.4482C276.302 40.8751 277.492 41.1145 278.805 41.1028C280.117 41.091 281.302 40.8304 282.423 40.3204C283.543 39.8104 284.537 39.0515 285.466 38.1056C286.395 37.1598 287.073 36.0912 287.5 34.8998C287.926 33.7085 288.165 32.4563 288.154 31.1438ZM287.876 0.0825768C292.501 0.103758 295.564 0.0764002 297.126 0.062442L297.558 48.4355L290.184 48.5014L289.54 46.3821C289.282 45.5718 288.899 44.5752 288.513 43.4536C287.833 44.2722 287.152 44.9658 286.345 45.5981C285.601 46.2297 284.793 46.7995 283.86 47.2453C282.926 47.6912 281.93 48.1376 280.995 48.4585C280.061 48.7793 279.062 48.9133 278.124 48.9216L277.749 48.925L277.437 48.9278C276.749 48.9339 275.999 48.8781 275.248 48.8223C274.56 48.7035 273.808 48.5227 273.119 48.3413C272.43 48.16 271.678 47.9167 270.988 47.6728L268.979 46.6907C267.724 46.0769 266.653 45.149 265.644 44.1579C264.572 43.105 263.687 41.9878 262.863 40.6826C262.039 39.3775 261.463 37.8825 261.011 36.2615C260.559 34.703 260.356 32.9547 260.339 31.0173C260.33 30.0798 260.385 29.2043 260.502 28.2657C260.618 27.3272 260.799 26.513 261.041 25.6983C261.284 24.8836 261.59 24.1309 261.896 23.3781C262.264 22.6873 262.633 21.9965 263.065 21.3051C263.866 20.1104 264.794 18.977 265.785 18.0306C266.84 17.0837 267.957 16.2612 269.264 15.562C270.57 14.8628 271.815 14.2891 273.124 13.9649C274.434 13.6407 275.682 13.442 276.995 13.4303L277.682 13.4242C277.745 13.4861 277.87 13.485 277.995 13.4839L278.308 13.4811C279.37 13.4716 280.435 13.7121 281.375 14.0162C282.315 14.3203 283.257 14.7494 284.073 15.1797C284.89 15.6724 285.582 16.1662 286.275 16.7225C286.967 17.2789 287.535 17.8988 288.041 18.5193L287.876 0.0825768Z" fill="black"/>
</svg>
