<svg viewBox="0 0 158 165" fill="none" xmlns="http://www.w3.org/2000/svg">
<path d="M76.4764 125.438C80.6732 126.82 83.0433 131.429 80.6912 135.169C75.1865 143.922 66.1841 148.582 58.2411 145.967C50.2981 143.352 45.8239 134.256 46.5955 123.945C46.9252 119.539 51.5701 117.239 55.7669 118.621L76.4764 125.438Z" fill="#4CCC8C"/>
<path d="M101.508 21.1492C99.8237 19.6552 97.5873 18.9404 95.3484 19.1802L71.2746 21.7591C67.7299 22.1388 64.8642 24.818 64.2472 28.3291L51.2996 102.011C50.6118 105.926 52.9021 109.752 56.6773 110.995L79.4329 118.486C83.2081 119.728 87.3233 118.011 89.0954 114.453L122.402 47.5868C124.014 44.3499 123.255 40.4339 120.549 38.0346L101.508 21.1492Z" fill="#4CCC8C"/>
<path d="M94.7562 114.242L124.164 66.0786C124.808 65.0241 125.761 64.194 126.895 63.7018L131.522 61.6919C135.387 60.0135 139.732 62.7363 139.907 66.9458L140.669 85.2517C140.752 87.2479 139.836 89.1545 138.225 90.3371L99.6084 118.697C98.7337 119.34 97.6024 119.52 96.5716 119.18C94.5166 118.504 93.6288 116.089 94.7562 114.242Z" fill="#C3C8A6"/>
<path d="M46.8746 98.4786L51.8295 42.2652C51.938 41.0344 51.6638 39.8002 51.0446 38.7311L48.5157 34.3653C46.404 30.7195 41.2909 30.3286 38.6494 33.611L27.1623 47.8848C25.9097 49.4413 25.5141 51.5192 26.1069 53.427L40.3248 99.1801C40.6468 100.216 41.45 101.033 42.4809 101.373C44.5358 102.049 46.6847 100.634 46.8746 98.4786Z" fill="#C3C8A6"/>
</svg>
