<!--?xml version="1.0" encoding="utf-8"?-->
<!-- Generator: Adobe Illustrator 18.1.1, SVG Export Plug-In . SVG Version: 6.00 Build 0)  -->

<svg version="1.1" fill="currentColor" id="_x31_0" xmlns="http://www.w3.org/2000/svg" xmlns:xlink="http://www.w3.org/1999/xlink" x="0px" y="0px" viewBox="0 0 512 512" style="width: 256px; height: 256px; opacity: 1;" xml:space="preserve">
<g>
	<path class="st0" d="M433.394,67.679C385.558,27.774,322.558,5.793,256,5.793c-66.558,0-129.558,21.981-177.394,61.886
		C27.914,109.965,0,167.035,0,228.382c0,61.344,27.914,118.418,78.606,160.703c44.285,36.942,101.566,58.52,162.637,61.52
		l56.426,44.062c9.73,7.602,21.566,11.539,33.527,11.539c6.89,0,13.821-1.305,20.41-3.973c18.043-7.29,30.82-23.657,33.523-42.926
		l5.848-41.672C465.438,377.492,512,306.042,512,228.382C512,167.035,484.086,109.965,433.394,67.679z M448.668,277.726
		c-1.25,3.402-2.614,6.762-4.11,10.066c-0.679,1.492-1.465,2.942-2.195,4.414c-1.05,2.133-2.074,4.277-3.226,6.367
		c-0.977,1.769-2.078,3.488-3.129,5.23c-1.074,1.777-2.102,3.582-3.25,5.324c-1.031,1.566-2.172,3.078-3.262,4.617
		c-1.34,1.891-2.641,3.801-4.066,5.641c-0.832,1.082-1.75,2.114-2.61,3.176c-1.843,2.266-3.679,4.535-5.648,6.718
		c-0.367,0.41-0.774,0.797-1.145,1.203c-19.656,21.391-45.293,38.75-74.878,50.274l-6.645,47.359l-3.387,23.566l-70.781-55.277
		c-1.45,0.027-2.883,0.094-4.336,0.094c-111.305,0-201.531-75.27-201.531-168.118c0-92.847,90.226-168.121,201.531-168.121
		s201.531,75.274,201.531,168.121c0,16.84-2.973,33.098-8.496,48.434C448.922,277.125,448.782,277.422,448.668,277.726z"></path>
</g>
</svg>
